<mxfile host="app.diagrams.net" agent="Mozilla/5.0 (Windows NT 10.0; Win64; x64) AppleWebKit/537.36 (KHTML, like Gecko) Chrome/130.0.0.0 Safari/537.36 Edg/130.0.0.0" version="24.8.4">
  <diagram name="Page-1" id="kUw0QP89otEUM-ThDa_o">
    <mxGraphModel dx="464" dy="759" grid="1" gridSize="10" guides="1" tooltips="1" connect="1" arrows="1" fold="1" page="1" pageScale="1" pageWidth="850" pageHeight="1100" math="0" shadow="0">
      <root>
        <mxCell id="0" />
        <mxCell id="1" parent="0" />
        <mxCell id="ACYOV6FldzME70TuokkX-25" style="edgeStyle=orthogonalEdgeStyle;rounded=0;orthogonalLoop=1;jettySize=auto;html=1;" edge="1" parent="1" source="2" target="6">
          <mxGeometry relative="1" as="geometry" />
        </mxCell>
        <mxCell id="2" value="JSON&#xa;Määrittely" style="swimlane;fontStyle=1;align=center;verticalAlign=top;childLayout=stackLayout;horizontal=1;startSize=44.625;horizontalStack=0;resizeParent=1;resizeParentMax=0;resizeLast=0;collapsible=0;marginBottom=0;" parent="1" vertex="1">
          <mxGeometry x="118" y="8" width="172" height="165.005" as="geometry" />
        </mxCell>
        <mxCell id="3" value="x_position" style="text;strokeColor=none;fillColor=none;align=left;verticalAlign=top;spacingLeft=4;spacingRight=4;overflow=hidden;rotatable=0;points=[[0,0.5],[1,0.5]];portConstraint=eastwest;" parent="2" vertex="1">
          <mxGeometry y="44.625" width="172" height="30" as="geometry" />
        </mxCell>
        <mxCell id="4" value="y_position&#xa;&#xa;&quot;Move&quot; &quot;Stop&quot; &quot;Status&quot;&#xa;&#xa;speed" style="text;strokeColor=none;fillColor=none;align=left;verticalAlign=top;spacingLeft=4;spacingRight=4;overflow=hidden;rotatable=0;points=[[0,0.5],[1,0.5]];portConstraint=eastwest;" parent="2" vertex="1">
          <mxGeometry y="74.625" width="172" height="75.38" as="geometry" />
        </mxCell>
        <mxCell id="5" style="line;strokeWidth=1;fillColor=none;align=left;verticalAlign=middle;spacingTop=-1;spacingLeft=3;spacingRight=3;rotatable=0;labelPosition=right;points=[];portConstraint=eastwest;strokeColor=inherit;" parent="2" vertex="1">
          <mxGeometry y="150.005" width="172" height="15" as="geometry" />
        </mxCell>
        <mxCell id="ACYOV6FldzME70TuokkX-26" style="edgeStyle=orthogonalEdgeStyle;rounded=0;orthogonalLoop=1;jettySize=auto;html=1;" edge="1" parent="1" source="6" target="11">
          <mxGeometry relative="1" as="geometry" />
        </mxCell>
        <mxCell id="6" value="PLC-Koodi" style="swimlane;fontStyle=1;align=center;verticalAlign=top;childLayout=stackLayout;horizontal=1;startSize=42.599999999999994;horizontalStack=0;resizeParent=1;resizeParentMax=0;resizeLast=0;collapsible=0;marginBottom=0;" parent="1" vertex="1">
          <mxGeometry x="119" y="230" width="170" height="94" as="geometry" />
        </mxCell>
        <mxCell id="7" value="MQTT-viestin vastaanotto&#xa;sekä käsittely" style="text;strokeColor=none;fillColor=none;align=left;verticalAlign=top;spacingLeft=4;spacingRight=4;overflow=hidden;rotatable=0;points=[[0,0.5],[1,0.5]];portConstraint=eastwest;" parent="6" vertex="1">
          <mxGeometry y="42.599999999999994" width="170" height="37.4" as="geometry" />
        </mxCell>
        <mxCell id="10" style="line;strokeWidth=1;fillColor=none;align=left;verticalAlign=middle;spacingTop=-1;spacingLeft=3;spacingRight=3;rotatable=0;labelPosition=right;points=[];portConstraint=eastwest;strokeColor=inherit;" parent="6" vertex="1">
          <mxGeometry y="80" width="170" height="14" as="geometry" />
        </mxCell>
        <mxCell id="ACYOV6FldzME70TuokkX-27" style="edgeStyle=orthogonalEdgeStyle;rounded=0;orthogonalLoop=1;jettySize=auto;html=1;entryX=0.5;entryY=0;entryDx=0;entryDy=0;" edge="1" parent="1" source="11" target="15">
          <mxGeometry relative="1" as="geometry" />
        </mxCell>
        <mxCell id="11" value="JSON&#xa;viestin parsinta" style="swimlane;fontStyle=1;align=center;verticalAlign=top;childLayout=stackLayout;horizontal=1;startSize=44.625;horizontalStack=0;resizeParent=1;resizeParentMax=0;resizeLast=0;collapsible=0;marginBottom=0;" parent="1" vertex="1">
          <mxGeometry x="119" y="400" width="170" height="115.005" as="geometry" />
        </mxCell>
        <mxCell id="12" value="poimitaan mitä tietoja &#xa;&#xa;halutaan" style="text;strokeColor=none;fillColor=none;align=left;verticalAlign=top;spacingLeft=4;spacingRight=4;overflow=hidden;rotatable=0;points=[[0,0.5],[1,0.5]];portConstraint=eastwest;" parent="11" vertex="1">
          <mxGeometry y="44.625" width="170" height="55.38" as="geometry" />
        </mxCell>
        <mxCell id="14" style="line;strokeWidth=1;fillColor=none;align=left;verticalAlign=middle;spacingTop=-1;spacingLeft=3;spacingRight=3;rotatable=0;labelPosition=right;points=[];portConstraint=eastwest;strokeColor=inherit;" parent="11" vertex="1">
          <mxGeometry y="100.005" width="170" height="15" as="geometry" />
        </mxCell>
        <mxCell id="ACYOV6FldzME70TuokkX-28" style="edgeStyle=orthogonalEdgeStyle;rounded=0;orthogonalLoop=1;jettySize=auto;html=1;entryX=0.5;entryY=0;entryDx=0;entryDy=0;" edge="1" parent="1" source="15" target="ACYOV6FldzME70TuokkX-22">
          <mxGeometry relative="1" as="geometry" />
        </mxCell>
        <mxCell id="15" value="Tomintojen&#xa;määrittely" style="swimlane;fontStyle=1;align=center;verticalAlign=top;childLayout=stackLayout;horizontal=1;startSize=48;horizontalStack=0;resizeParent=1;resizeParentMax=0;resizeLast=0;collapsible=0;marginBottom=0;" parent="1" vertex="1">
          <mxGeometry x="119" y="600" width="170" height="96" as="geometry" />
        </mxCell>
        <mxCell id="16" value="MoveXYTable, StopXYTable&#xa;SpeedXYTable" style="text;strokeColor=none;fillColor=none;align=left;verticalAlign=top;spacingLeft=4;spacingRight=4;overflow=hidden;rotatable=0;points=[[0,0.5],[1,0.5]];portConstraint=eastwest;" parent="15" vertex="1">
          <mxGeometry y="48" width="170" height="32" as="geometry" />
        </mxCell>
        <mxCell id="17" style="line;strokeWidth=1;fillColor=none;align=left;verticalAlign=middle;spacingTop=-1;spacingLeft=3;spacingRight=3;rotatable=0;labelPosition=right;points=[];portConstraint=eastwest;strokeColor=inherit;" parent="15" vertex="1">
          <mxGeometry y="80" width="170" height="16" as="geometry" />
        </mxCell>
        <mxCell id="ACYOV6FldzME70TuokkX-22" value="Palautteen lähetys" style="swimlane;fontStyle=1;align=center;verticalAlign=top;childLayout=stackLayout;horizontal=1;startSize=48;horizontalStack=0;resizeParent=1;resizeParentMax=0;resizeLast=0;collapsible=0;marginBottom=0;" vertex="1" parent="1">
          <mxGeometry x="119" y="750" width="170" height="116" as="geometry" />
        </mxCell>
        <mxCell id="ACYOV6FldzME70TuokkX-23" value="Saavutettu tavoitepaikka&#xa;komento vastaanotettu&#xa;virhetila" style="text;strokeColor=none;fillColor=none;align=left;verticalAlign=top;spacingLeft=4;spacingRight=4;overflow=hidden;rotatable=0;points=[[0,0.5],[1,0.5]];portConstraint=eastwest;" vertex="1" parent="ACYOV6FldzME70TuokkX-22">
          <mxGeometry y="48" width="170" height="52" as="geometry" />
        </mxCell>
        <mxCell id="ACYOV6FldzME70TuokkX-24" style="line;strokeWidth=1;fillColor=none;align=left;verticalAlign=middle;spacingTop=-1;spacingLeft=3;spacingRight=3;rotatable=0;labelPosition=right;points=[];portConstraint=eastwest;strokeColor=inherit;" vertex="1" parent="ACYOV6FldzME70TuokkX-22">
          <mxGeometry y="100" width="170" height="16" as="geometry" />
        </mxCell>
      </root>
    </mxGraphModel>
  </diagram>
</mxfile>
